<svg width="187" height="295" xmlns="http://www.w3.org/2000/svg" xmlns:xlink="http://www.w3.org/1999/xlink" xml:space="preserve" overflow="hidden"><defs><clipPath id="clip0"><rect x="2225" y="1495" width="187" height="295"/></clipPath></defs><g clip-path="url(#clip0)" transform="translate(-2225 -1495)"><path d="M2412 1740.83 2412 1708.06 2267.5 1708.06C2262.82 1708.06 2259 1704.37 2259 1699.86L2259 1617.92C2259 1613.41 2262.82 1609.72 2267.5 1609.72L2412 1609.72 2412 1576.94C2412 1567.93 2404.35 1560.56 2395 1560.56L2380.12 1560.56C2378.85 1560.56 2378 1559.74 2378 1558.51L2378 1546.22C2378 1544.99 2378.85 1544.17 2380.12 1544.17L2390.75 1544.17C2393.3 1544.17 2395 1542.53 2395 1540.07L2395 1511.39C2395 1502.37 2387.35 1495 2378 1495L2259 1495C2249.65 1495 2242 1502.37 2242 1511.39L2242 1540.07C2242 1542.53 2243.7 1544.17 2246.25 1544.17L2256.88 1544.17C2258.15 1544.17 2259 1544.99 2259 1546.22L2259 1558.51C2259 1559.74 2258.15 1560.56 2256.88 1560.56L2242 1560.56C2232.65 1560.56 2225 1567.93 2225 1576.94L2225 1773.61C2225 1782.63 2232.65 1790 2242 1790L2301.5 1790C2301.5 1762.96 2324.45 1740.83 2352.5 1740.83L2412 1740.83Z" fill="#8FAADC" fill-rule="evenodd"/><path d="M2276 1630.06 2276 1686.94C2276 1689.37 2277.7 1691 2280.25 1691L2412 1691 2412 1626 2280.25 1626C2277.7 1626 2276 1627.62 2276 1630.06Z" fill="#8FAADC" fill-rule="evenodd"/><path d="M2225 1728.22C2225 1718.71 2232.71 1711 2242.22 1711L2394.78 1711C2404.29 1711 2412 1718.71 2412 1728.22L2412 1772.78C2412 1782.29 2404.29 1790 2394.78 1790L2242.22 1790C2232.71 1790 2225 1782.29 2225 1772.78Z" fill="#8FAADC" fill-rule="evenodd"/></g></svg>