<svg width="118" height="115" xmlns="http://www.w3.org/2000/svg" xmlns:xlink="http://www.w3.org/1999/xlink" xml:space="preserve" overflow="hidden"><g transform="translate(-517 -463)"><path d="M76.6667 81.4583 76.6667 71.875 35.9375 71.875C34.6198 71.875 33.5417 70.7969 33.5417 69.4792L33.5417 45.5208C33.5417 44.2031 34.6198 43.125 35.9375 43.125L76.6667 43.125 76.6667 33.5417C76.6667 30.9062 74.5104 28.75 71.875 28.75L67.6823 28.75C67.3229 28.75 67.0833 28.5104 67.0833 28.151L67.0833 24.5573C67.0833 24.1979 67.3229 23.9583 67.6823 23.9583L70.6771 23.9583C71.3958 23.9583 71.875 23.4792 71.875 22.7604L71.875 14.375C71.875 11.7396 69.7188 9.58333 67.0833 9.58333L33.5417 9.58333C30.9062 9.58333 28.75 11.7396 28.75 14.375L28.75 22.7604C28.75 23.4792 29.2292 23.9583 29.9479 23.9583L32.9427 23.9583C33.3021 23.9583 33.5417 24.1979 33.5417 24.5573L33.5417 28.151C33.5417 28.5104 33.3021 28.75 32.9427 28.75L28.75 28.75C26.1146 28.75 23.9583 30.9062 23.9583 33.5417L23.9583 91.0417C23.9583 93.6771 26.1146 95.8333 28.75 95.8333L45.5208 95.8333C45.5208 87.9271 51.9896 81.4583 59.8958 81.4583L76.6667 81.4583Z" fill="#ED7D31" transform="matrix(1.02609 0 0 1 517 463)"/><path d="M38.3333 49.1146 38.3333 65.8854C38.3333 66.6042 38.8125 67.0833 39.5312 67.0833L76.6667 67.0833 76.6667 47.9167 39.5312 47.9167C38.8125 47.9167 38.3333 48.3958 38.3333 49.1146Z" fill="#ED7D31" transform="matrix(1.02609 0 0 1 517 463)"/><path d="M70.6771 100.625 59.8958 100.625C57.2604 100.625 55.1042 98.4687 55.1042 95.8333 55.1042 93.1979 57.2604 91.0417 59.8958 91.0417L70.6771 91.0417 70.6771 100.625ZM81.4583 86.25 59.8958 86.25C54.625 86.25 50.3125 90.5625 50.3125 95.8333 50.3125 101.104 54.625 105.417 59.8958 105.417L81.4583 105.417C86.7292 105.417 91.0417 101.104 91.0417 95.8333 91.0417 90.5625 86.7292 86.25 81.4583 86.25Z" fill="#ED7D31" transform="matrix(1.02609 0 0 1 517 463)"/></g></svg>